# xmcd
# Track frame offsets:
# 150
# 17903
# 38089
# 58373
# 75395
# 95264
# 118009
# 137676
# 157055
# 175574
# 192177
# 213758
# 239224
#
# Disc length: 3460 seconds
# Revision: 0
# Processed by: cddbd v1.5PL3 Copyright (c) Steve Scherf et al.
# Submitted via: VisiTrax 2.9.6.190 - For more info visit www.synapsa.com
#
DISCID=ad0d820d
DTITLE=Mya - Mya
DYEAR=1998
DGENRE=Blues
TTITLE0=Mya - What Cha Say
TTITLE1=Mya - Movin' On
TTITLE2=Mya - Baby It's Yours
TTITLE3=Mya - Keep On Lovin' Me
TTITLE4=Mya - It's All About Me
TTITLE5=Mya - If You Died I Wouldn't Cry Cause You Never Loved Me Anyway
TTITLE6=Mya - We're Gonna Make Ya Dance
TTITLE7=Mya - If You Were Mine
TTITLE8=Mya - Bye Bye
TTITLE9=Mya - Anytime You Want Me
TTITLE10=Mya - Don't Be Afraid
TTITLE11=Mya - My First Night With You
TTITLE12=Mya - Silkk The Shocker - Movin' On
EXTD=ID3G:   0
EXTT0=
EXTT1=
EXTT2=
EXTT3=
EXTT4=
EXTT5=
EXTT6=
EXTT7=
EXTT8=
EXTT9=
EXTT10=
EXTT11=
EXTT12=
PLAYORDER=
